# xmcd
# 
# Track frame offsets:
#     150
#     31700
#     61569
#     87420
#     121462
#     181463
#     214493
#     235568
#     250562
# 
# Disc length: 3703
# 
# Revision: 2
# Processed by: cddbd v1.5.2PL0 Copyright (c) Steve Scherf et al.
# Submitted via: fre:ac v1.0.27
# 
DISCID=6c0e7509
DTITLE=The Allman Brothers Band - Play All Night: Live At The Beacon Theatre 1992 [CD1]
DYEAR=2014
DGENRE=Rock
TTITLE0=Statesboro Blues
TTITLE1=You Don't Love Me
TTITLE2=End Of The Line
TTITLE3=Blue Sky
TTITLE4=Nobody Knows
TTITLE5=Low Down Dirty Mean
TTITLE6=Seven Turns
TTITLE7=Midnight Rider
TTITLE8=Come On In My Kitchen
EXTD=
EXTT0=
EXTT1=
EXTT2=
EXTT3=
EXTT4=
EXTT5=
EXTT6=
EXTT7=
EXTT8=
PLAYORDER=
